replay
version=1
nRows=9
nColumns=40
inDegrees=no
endheader
time	/jointset/ground_pelvis/pelvis_tilt/value	/jointset/ground_pelvis/pelvis_list/value	/jointset/ground_pelvis/pelvis_rotation/value	/jointset/ground_pelvis/pelvis_tx/value	/jointset/ground_pelvis/pelvis_ty/value	/jointset/ground_pelvis/pelvis_tz/value	/jointset/hip_r/hip_flexion_r/value	/jointset/hip_r/hip_adduction_r/value	/jointset/hip_r/hip_rotation_r/value	/jointset/walker_knee_r/knee_angle_r/value	/jointset/patellofemoral_r/knee_angle_r_beta/value	/jointset/ankle_r/ankle_angle_r/value	/jointset/subtalar_r/subtalar_angle_r/value	/jointset/mtp_r/mtp_angle_r/value	/jointset/hip_l/hip_flexion_l/value	/jointset/hip_l/hip_adduction_l/value	/jointset/hip_l/hip_rotation_l/value	/jointset/walker_knee_l/knee_angle_l/value	/jointset/patellofemoral_l/knee_angle_l_beta/value	/jointset/ankle_l/ankle_angle_l/value	/jointset/subtalar_l/subtalar_angle_l/value	/jointset/mtp_l/mtp_angle_l/value	/jointset/back/lumbar_extension/value	/jointset/back/lumbar_bending/value	/jointset/back/lumbar_rotation/value	/jointset/acromial_r/arm_flex_r/value	/jointset/acromial_r/arm_add_r/value	/jointset/acromial_r/arm_rot_r/value	/jointset/elbow_r/elbow_flex_r/value	/jointset/radioulnar_r/pro_sup_r/value	/jointset/radius_hand_r/wrist_flex_r/value	/jointset/radius_hand_r/wrist_dev_r/value	/jointset/acromial_l/arm_flex_l/value	/jointset/acromial_l/arm_add_l/value	/jointset/acromial_l/arm_rot_l/value	/jointset/elbow_l/elbow_flex_l/value	/jointset/radioulnar_l/pro_sup_l/value	/jointset/radius_hand_l/wrist_flex_l/value	/jointset/radius_hand_l/wrist_dev_l/value
0.15	-0.1751453709	-0.1351490091	-0.3195533202	1.177462244	1.057697154	-0.09972984114	0.2862655874	0.1659318036	0.2637463836	0.1571279491	0.1571279491	-0.2190465869	-0.1923345206	-1.438765465e-06	0.15557416	-0.1309635063	-0.2818523687	0.09652582362	0.09652582362	-0.1077468049	-0.1730238424	-2.244430829e-06	0.3306365991	0.9371893472	-0.8405563611	-0.8940293989	-1.290147464	-1.155425251	0.6054065991	0.1861386329	0.4993518952	-0.7853516411	-0.1078453848	0.7677252532	-1.11274139	1.795246629	0.1838175628	-0.0005622426315	-0.0001392760289
0.152777778	-0.1752554202	-0.1352433389	-0.3201996349	1.177467175	1.057769829	-0.099741533	0.2860124168	0.1660488445	0.2637224538	0.1569906414	0.1569906414	-0.2190442216	-0.192407069	-1.318390536e-06	0.1558317636	-0.1312255984	-0.2820538519	0.09663385233	0.09663385233	-0.1077681876	-0.172859772	-1.979320232e-06	0.3305812938	0.9379899609	-0.8410286868	-0.8938475515	-1.290172757	-1.155290895	0.6052152467	0.1858511514	0.4992419103	-0.7853677007	-0.107408612	0.7677608444	-1.112722892	1.79515588	0.1836119977	-0.0005541351405	-0.0001360382173
0.155555556	-0.1753618205	-0.1353516153	-0.3208647306	1.17747046	1.057835643	-0.09975978974	0.2857444257	0.166157598	0.2636922448	0.1568576138	0.1568576138	-0.2190396683	-0.1924716671	-1.20520702e-06	0.1560757356	-0.1314877304	-0.2822612825	0.09674466019	0.09674466019	-0.1077872473	-0.1727074015	-1.754052094e-06	0.3305095452	0.9388294546	-0.8415099192	-0.8936427073	-1.290193141	-1.155151443	0.6049558528	0.1855266598	0.4992175524	-0.7853598463	-0.1069749071	0.7677965654	-1.112698655	1.795055621	0.1833991498	-0.0005482447903	-0.000132488962
0.158333333	-0.1754674352	-0.1354715513	-0.3215404786	1.177472365	1.057893623	-0.09978628147	0.2854674258	0.166251371	0.2636276353	0.1567286357	0.1567286357	-0.2190397324	-0.1925412609	-1.159610215e-06	0.1563134149	-0.1317441157	-0.282445023	0.09685723912	0.09685723912	-0.1078048542	-0.1725422532	-1.563540009e-06	0.3304358502	0.9397012034	-0.8420374738	-0.8934473033	-1.290208724	-1.155002906	0.6047391338	0.1852219767	0.4991527431	-0.7852959595	-0.1065431898	0.7678519652	-1.112679583	1.794960453	0.1831914024	-0.0005392549118	-0.0001293947603
0.161111111	-0.1755751411	-0.1356012177	-0.3222190259	1.17747314	1.057942809	-0.09982259306	0.2851870512	0.1663241285	0.2635013727	0.1566033899	0.1566033899	-0.2190509783	-0.1926284144	-1.204756675e-06	0.1565519763	-0.1319896025	-0.2825763184	0.09697069774	0.09697069774	-0.1078218031	-0.1723405975	-1.369856459e-06	0.3303743679	0.9405990287	-0.842647587	-0.8932930368	-1.290219525	-1.154840205	0.6046708887	0.1849938617	0.4989238628	-0.7851471414	-0.1061124561	0.7679460867	-1.112676259	1.794884875	0.1830008006	-0.0005221211765	-0.0001275064828
0.163888889	-0.1756863965	-0.1357521961	-0.3229011595	1.177472613	1.05798296	-0.0998671076	0.2848989239	0.1663927687	0.2633190288	0.1564766301	0.1564766301	-0.2190695351	-0.1927308033	-1.290917546e-06	0.1567895513	-0.1322421652	-0.2826597593	0.0970880378	0.0970880378	-0.1078364049	-0.1721074972	-1.134777775e-06	0.3303226697	0.9415322103	-0.8433294529	-0.8931756087	-1.290212138	-1.154647443	0.6046964192	0.1848260686	0.4985506684	-0.7849393631	-0.105687687	0.7680794036	-1.112685101	1.794836329	0.1828254201	-0.0004973727083	-0.0001270577308
0.166666667	-0.1758009348	-0.1359536297	-0.3235987288	1.177470065	1.058014765	-0.09991406003	0.2845856792	0.1665039276	0.2631286558	0.1563366386	0.1563366386	-0.219077958	-0.1928267602	-1.361578929e-06	0.1570126336	-0.1325498431	-0.2827430987	0.097217401	0.097217401	-0.1078436876	-0.1718853772	-8.242022087e-07	0.3302570224	0.9425300836	-0.8440113882	-0.8930440722	-1.290155468	-1.154394879	0.6045541803	0.1845876675	0.4982543388	-0.7847593444	-0.1052818155	0.7682283643	-1.112684057	1.794812912	0.182645174	-0.0004725137069	-0.0001276271829
0.169444444	-0.175918659	-0.1362358445	-0.3243241312	1.177464736	1.058038961	-0.0999574195	0.2842292663	0.1667062246	0.2629809242	0.1561712392	0.1561712392	-0.2190578896	-0.1928933277	-1.450349317e-06	0.1572072454	-0.1329627714	-0.2828767656	0.09736745229	0.09736745229	-0.1078383612	-0.1717191034	-3.728703407e-07	0.3301528108	0.9436233189	-0.8446180795	-0.8928432807	-1.290017179	-1.154051608	0.6039697958	0.1841188123	0.4982866217	-0.7846858719	-0.1049084999	0.7683679167	-1.112649798	1.79481189	0.1824387419	-0.0004552507479	-0.0001288071001
0.172222222	-0.1760389801	-0.1366214864	-0.3250867901	1.177455805	1.058056178	-0.0999925589	0.2838162021	0.1670365278	0.2629195868	0.1559723775	0.1559723775	-0.21899467	-0.1929123982	-1.661458576e-06	0.1573623828	-0.1335189221	-0.2831041909	0.09754418342	0.09754418342	-0.1078180402	-0.1716445555	2.468095337e-07	0.3299893499	0.9448352097	-0.8450890254	-0.8925264445	-1.289771666	-1.153598471	0.6027250509	0.1832936462	0.4988484194	-0.7847768996	-0.1045791632	0.7684765352	-1.112564429	1.794830067	0.1821894349	-0.0004517434448	-0.0001302955055
